<?xml version="1.0" encoding="utf-8"?>
<!-- Generator: Adobe Illustrator 27.0.0, SVG Export Plug-In . SVG Version: 6.00 Build 0)  -->
<svg version="1.1" id="Capa_1" xmlns="http://www.w3.org/2000/svg" xmlns:xlink="http://www.w3.org/1999/xlink" x="0px" y="0px"
	 viewBox="0 0 1539.6 332.3" style="enable-background:new 0 0 1539.6 332.3;" xml:space="preserve">
<style type="text/css">
	.st0{fill:#4F46E5;}
</style>
<g>
	<path class="st0" d="M348.1,70h-224c-17.7,0-32,14.3-32,32v32c0,4.4,3.7,7.8,7.8,9.3c9.4,3.2,16.2,12.2,16.2,22.7
		s-6.8,19.4-16.2,22.7c-4.1,1.5-7.8,4.9-7.8,9.3v32c0,17.6,14.3,32,32,32h224c17.7,0,32-14.4,32-32v-32c0-4.4-3.7-7.9-7.8-9.3
		c-9.4-3.2-16.2-12.2-16.2-22.7s6.8-19.5,16.2-22.7c4.1-1.5,7.8-4.9,7.8-9.3v-32C380.1,84.4,365.8,70,348.1,70z"/>
	<path class="st0" d="M610.8,161.2c2.6-3.9,4.6-8.1,6-12.5s2.2-9.2,2.2-14.2c0-6.7-1.3-13.1-4-19.1c-2.6-6-6.2-11.2-10.8-15.7
		c-4.6-4.4-9.9-8-16.1-10.5c-6.2-2.6-12.7-3.9-19.6-3.9h-81.8v164h33.6v-65.7h60.2c2.2,0,4.4,0.5,6.4,1.6s3.8,2.5,5.4,4.2
		c1.6,1.7,2.8,3.7,3.7,6s1.3,4.6,1.3,6.9c0,2.2-0.4,4.4-1.3,6.5c-0.9,2.2-2,4.1-3.5,5.8c-1.4,1.7-3.2,3.2-5.2,4.3
		c-2,1.2-4.1,1.8-6.4,1.8h-51.3l15.6,28.5h35.3c6.9,0,13.4-1.3,19.6-3.9c6.2-2.6,11.5-6.1,16.1-10.6s8.2-9.7,10.8-15.7
		c2.6-5.9,4-12.3,4-19.2c0-8-1.8-15.3-5.5-22.1C621.8,171.1,616.9,165.5,610.8,161.2z M584.1,139.8c-0.9,2.3-2.1,4.2-3.7,5.8
		c-1.6,1.6-3.4,3-5.4,4s-4.1,1.5-6.4,1.5h-48.2v-37.2h48.2c2.2,0,4.4,0.5,6.4,1.5s3.8,2.4,5.4,4.1c1.6,1.7,2.8,3.7,3.7,6
		s1.3,4.6,1.3,7.1C585.4,135.1,585,137.5,584.1,139.8z"/>
	<path class="st0" d="M744,148.3c-5.6-5.5-12.2-9.8-19.7-13s-15.6-4.8-24.2-4.8s-16.7,1.6-24.2,4.8s-14.1,7.5-19.7,13
		c-5.6,5.5-10,11.9-13.3,19.2s-4.9,15.1-4.9,23.4c0,8.3,1.6,16.1,4.9,23.4c3.3,7.3,7.7,13.7,13.3,19.2s12.2,9.8,19.7,13
		s15.6,4.8,24.2,4.8s16.7-1.6,24.2-4.8s14.1-7.5,19.7-13c5.6-5.5,10-11.8,13.3-19.2c3.3-7.3,4.9-15.1,4.9-23.4
		c0-8.3-1.6-16.1-4.9-23.4C754,160.2,749.6,153.8,744,148.3z M726.6,203.2c-1.5,4-3.6,7.5-6.2,10.5c-2.6,3-5.7,5.4-9.1,7.1
		c-3.4,1.7-7.2,2.6-11.2,2.6s-7.8-0.9-11.3-2.6c-3.5-1.7-6.6-4.1-9.2-7.1c-2.6-3-4.7-6.5-6.2-10.5s-2.3-8.3-2.3-13
		c0-4.4,0.8-8.5,2.3-12.5s3.6-7.4,6.2-10.3c2.6-2.9,5.7-5.2,9.2-6.9s7.3-2.6,11.3-2.6s7.7,0.9,11.2,2.6c3.4,1.7,6.5,4,9.1,6.9
		s4.7,6.3,6.2,10.3s2.3,8.1,2.3,12.5C728.9,194.9,728.1,199.2,726.6,203.2z"/>
	<polygon class="st0" points="774.2,249.4 806.1,249.4 806.1,85.6 774.5,85.6 	"/>
	<path class="st0" d="M928.5,152.2c-5.2-6.1-11.3-11-18.2-14.6s-14.4-5.9-22.5-6.9c-8.1-0.9-16.2-0.2-24.4,2.2
		c-8.3,2.4-15.6,6.3-22,11.5s-11.5,11.2-15.3,18.1c-3.8,6.8-6.3,14.2-7.3,22.2c-1.1,8-0.4,16,2,24c2.3,7.9,6.1,14.9,11.4,21
		c5.2,6.1,11.3,11,18.2,14.6s14.5,5.9,22.6,6.7c8.2,0.8,16.4,0,24.7-2.4c9.5-2.8,17.9-7.6,25.2-14.3s12.5-14.7,15.8-23.9l0.3-0.6
		l-30.1-3.6h-0.6l-0.2,0.3c-1.9,4.8-4.4,8.3-7.6,10.4c-3.1,2.1-6.7,3.8-10.9,5.1c-4.6,1.4-9,1.6-13.3,0.7c-4.3-0.9-8.2-2.5-11.6-4.7
		c-3.5-2.2-6.5-4.9-8.9-8.2c-2.5-3.2-4.2-6.6-5.2-10c-1.3-4.5-1.8-8.8-1.4-13.1c0.4-4.3,1.5-8.2,3.4-11.7s4.4-6.7,7.6-9.4
		c3.2-2.7,6.9-4.7,11-5.9c6.7-2,13.2-1.7,19.4,0.9c6.2,2.6,11.3,6.7,15.3,12.3l-43.7,12.9l21.5,18.5l58.4-17.3l0.1-0.5
		c-0.3-4.3-1.1-8.6-2.3-13C937.5,165.4,933.7,158.3,928.5,152.2z"/>
	<path class="st0" d="M1001.2,102.2h-31.9v42.3H952v26h17.3v35.1c0,6.1,1.2,11.8,3.6,17.1c2.4,5.3,5.6,9.9,9.7,13.9
		c4.1,4,8.9,7.1,14.4,9.4c5.5,2.3,11.4,3.4,17.6,3.4h23.3v-27.2h-23.3c-3.7,0-6.8-1.2-9.5-3.7c-2.6-2.5-4-5.5-4-9.1v-38.8
		c12.2,0,24.5,0,36.7,0v-26c-12.2,0-24.5,0-36.7,0L1001.2,102.2C1001.1,102.2,1001.2,102.2,1001.2,102.2z"/>
	<path class="st0" d="M1247.6,130.5c-16.3,0-28.7,5.7-37.2,17.1v-15.2h-32.6v117h32.6v-64.3c0.6-3.7,2-7.3,4-10.5
		c2-3.3,4.4-6.1,7.3-8.5s6.2-4.3,9.8-5.6c3.7-1.3,7.6-2,11.8-2c6.1,0,11.8,1.5,17,4.4l0.2,0.2l12.2-21.3l2.9-4.7h-0.2
		C1266.4,132.7,1257.2,130.5,1247.6,130.5z"/>
	<rect x="1282.6" y="132.4" class="st0" width="31.9" height="117"/>
	<path class="st0" d="M1426.3,132.4v15.8c-4.5-5.7-9.8-10.1-16.1-13.1c-6.2-3-13.5-4.5-21.8-4.5c-8.5,0-16.5,1.6-24,4.8
		s-14.1,7.5-19.7,13s-10,11.9-13.3,19.2s-4.9,15.2-4.9,23.6c0,8.3,1.6,16.1,4.9,23.4c3.3,7.3,7.7,13.7,13.3,19.2
		c5.6,5.5,12.2,9.7,19.7,12.9c7.5,3.1,15.5,4.7,24,4.7c11.5,0,21.2-3,29-8.9l0.2-0.2l-12-20.8V221h-0.2c-3.5,1.7-7.8,2.6-12.7,2.6
		c-4.6,0-9-0.9-13-2.6c-4-1.7-7.6-4.1-10.7-7c-3.1-3-5.6-6.4-7.3-10.3c-1.8-3.9-2.6-8.1-2.6-12.4c0-4.5,0.9-8.8,2.6-12.8
		c1.8-4,4.2-7.4,7.3-10.3s6.7-5.2,10.7-6.9s8.3-2.6,13-2.6c4.5,0,8.8,0.8,12.8,2.5c4.1,1.6,7.7,3.9,10.8,6.9s5.6,6.4,7.3,10.3
		c1.8,3.9,2.6,8.1,2.6,12.7v58.6h31.4v-117h-31.3L1426.3,132.4L1426.3,132.4z"/>
	<path class="st0" d="M1148.1,152.2c-5.2-6.1-11.3-11-18.2-14.6c-6.9-3.6-14.4-5.9-22.5-6.9c-8.1-0.9-16.2-0.2-24.4,2.2
		c-8.3,2.4-15.6,6.3-22,11.5s-11.5,11.2-15.3,18.1c-3.8,6.8-6.3,14.2-7.3,22.2c-1.1,8-0.4,16,2,24c2.3,7.9,6.1,14.9,11.4,21
		c5.2,6.1,11.3,11,18.2,14.6c6.9,3.6,14.5,5.9,22.6,6.7c8.2,0.8,16.4,0,24.7-2.4c9.5-2.8,17.9-7.6,25.2-14.3
		c7.3-6.7,12.5-14.7,15.8-23.9l0.3-0.6l-30.1-3.6l-0.5-0.1l-0.2,0.3c-1.9,4.8-4.4,8.3-7.6,10.4c-3.1,2.1-6.7,3.8-10.9,5.1
		c-4.6,1.4-9,1.6-13.3,0.7c-4.3-0.9-8.2-2.5-11.6-4.7c-3.5-2.2-6.5-4.9-8.9-8.2c-2.5-3.2-4.2-6.6-5.2-10c-1.3-4.5-1.8-8.8-1.4-13.1
		s1.5-8.2,3.4-11.7s4.4-6.7,7.6-9.4s6.9-4.7,11-5.9c6.7-2,13.2-1.7,19.4,0.9c6.2,2.6,11.3,6.7,15.3,12.3l-43.7,12.9l21.5,18.5
		l58.4-17.3l0.1-0.5c-0.3-4.3-1.1-8.6-2.3-13C1157.1,165.4,1153.3,158.3,1148.1,152.2z"/>
	<circle class="st0" cx="1298.6" cy="102.2" r="17.9"/>
</g>
</svg>
